<svg xmlns="http://www.w3.org/2000/svg" viewBox="0 0 540.24 540.49"><defs><style>.cls-1{fill:none;stroke:#fff;stroke-miterlimit:10;}</style></defs><title>자산 1</title><g id="레이어_2" data-name="레이어 2"><g id="레이어_1-2" data-name="레이어 1"><path class="cls-1" d="M508.83,159.46a8,8,0,0,1-2.58.86,5.05,5.05,0,0,1-2.5-.24,6.25,6.25,0,0,1-2.35-1.53,11.52,11.52,0,0,1-2.13-3l-4-7.74-5.46,2.84L487.37,146l17.26-9,6.45,12.4a11.84,11.84,0,0,1,1.25,3.47,6.2,6.2,0,0,1-.09,2.8,5.09,5.09,0,0,1-1.23,2.18A8.07,8.07,0,0,1,508.83,159.46Zm-2.53-4.67a3.15,3.15,0,0,0,.95-.71,1.73,1.73,0,0,0,.42-.93,3.05,3.05,0,0,0-.12-1.23,8.56,8.56,0,0,0-.67-1.61l-3.5-6.73-4.45,2.31,3.5,6.73a10.71,10.71,0,0,0,.91,1.49,3.09,3.09,0,0,0,.89.83,1.66,1.66,0,0,0,1,.21A3,3,0,0,0,506.3,154.79Z"/><path class="cls-1" d="M505.51,185.56l7.56-2.95-4.85-12.45-7.56,2.94-1.91-4.89,18.13-7.07,1.91,4.9-6.6,2.57L517,181.07l6.6-2.58,1.91,4.9-18.13,7.06Z"/><path class="cls-1" d="M524.68,216.93a10,10,0,0,1-4.52.23,8.69,8.69,0,0,1-3.76-1.73,12.22,12.22,0,0,1-2.94-3.53,23.08,23.08,0,0,1-2.78-10.63,12.17,12.17,0,0,1,.82-4.54,8.76,8.76,0,0,1,2.43-3.39,11,11,0,0,1,8.56-2.24,8.76,8.76,0,0,1,3.78,1.76,12.23,12.23,0,0,1,2.94,3.56A23.16,23.16,0,0,1,532,207.05a12,12,0,0,1-.83,4.51,8.66,8.66,0,0,1-2.43,3.36A10.15,10.15,0,0,1,524.68,216.93Zm-1.35-5.13a7.12,7.12,0,0,0,2-.89,4.74,4.74,0,0,0,1.57-1.69,6.42,6.42,0,0,0,.75-2.69,12.17,12.17,0,0,0-.47-3.9,13.87,13.87,0,0,0-1-2.64,8.39,8.39,0,0,0-1.19-1.83A5.41,5.41,0,0,0,523.7,197a5.5,5.5,0,0,0-1.46-.6,5.37,5.37,0,0,0-1.49-.13,7.26,7.26,0,0,0-1.42.22A7.18,7.18,0,0,0,518,197a4.92,4.92,0,0,0-1.23.85,5,5,0,0,0-1,1.23,5.74,5.74,0,0,0-.6,1.68,8.44,8.44,0,0,0-.13,2.19,14.15,14.15,0,0,0,.46,2.76,12.16,12.16,0,0,0,1.51,3.63,6.4,6.4,0,0,0,2,2,4.63,4.63,0,0,0,2.19.7A7.22,7.22,0,0,0,523.33,211.8Z"/><path class="cls-1" d="M532.49,231.36l-15,2.35-.81-5.19,15-2.35L530.4,218l4.19-.66L538,238.88l-4.18.65Z"/><path class="cls-1" d="M530.1,268.73a10.17,10.17,0,0,1-4.47-.68,8.64,8.64,0,0,1-3.35-2.45,12.12,12.12,0,0,1-2.17-4.05,20.87,20.87,0,0,1-1-5.44,21.74,21.74,0,0,1,.35-5.53,12.05,12.05,0,0,1,1.72-4.28,8.73,8.73,0,0,1,3-2.84,10,10,0,0,1,4.37-1.17,9.76,9.76,0,0,1,4.47.69,8.62,8.62,0,0,1,3.35,2.48,12.05,12.05,0,0,1,2.17,4.07,21.53,21.53,0,0,1,1,5.45,21.13,21.13,0,0,1-.36,5.52,12.2,12.2,0,0,1-1.71,4.26,8.74,8.74,0,0,1-3.06,2.8A10.16,10.16,0,0,1,530.1,268.73Zm-.29-5.31A7.14,7.14,0,0,0,532,263a4.67,4.67,0,0,0,1.87-1.34,6.35,6.35,0,0,0,1.27-2.49,11.89,11.89,0,0,0,.32-3.92,13.44,13.44,0,0,0-.4-2.77,8.35,8.35,0,0,0-.8-2,5.52,5.52,0,0,0-1.1-1.41,5.11,5.11,0,0,0-1.31-.88,5.32,5.32,0,0,0-1.43-.42,6.44,6.44,0,0,0-1.45-.07,6.55,6.55,0,0,0-1.44.23,4.65,4.65,0,0,0-1.38.58,4.75,4.75,0,0,0-1.2,1A5.48,5.48,0,0,0,524,251a8.84,8.84,0,0,0-.57,2.11,13.92,13.92,0,0,0-.09,2.8,12.1,12.1,0,0,0,.75,3.86,6.44,6.44,0,0,0,1.54,2.33,4.6,4.6,0,0,0,2,1.13A7.1,7.1,0,0,0,529.81,263.42Z"/><path class="cls-1" d="M533.32,291.41c.2-.36.42-.84.68-1.43s.5-1.27.74-2a24,24,0,0,0,.63-2.47,18.79,18.79,0,0,0,.33-2.75c0-.75,0-1.4,0-1.93a10.88,10.88,0,0,0-.12-1.35,4.15,4.15,0,0,0-.22-.88,1.89,1.89,0,0,0-.28-.5.79.79,0,0,0-.3-.24l-.28-.06a1,1,0,0,0-.77.39,4.33,4.33,0,0,0-.62,1.13c-.18.49-.37,1.05-.54,1.69s-.36,1.33-.55,2.05-.4,1.47-.62,2.24-.47,1.52-.75,2.24a17.22,17.22,0,0,1-.95,2,8.12,8.12,0,0,1-1.22,1.65,4.74,4.74,0,0,1-1.56,1.09,4.29,4.29,0,0,1-2,.34,5.53,5.53,0,0,1-2.38-.61,5.14,5.14,0,0,1-1.63-1.4,6.58,6.58,0,0,1-1-2,13.3,13.3,0,0,1-.54-2.32,19.57,19.57,0,0,1-.18-2.43c0-.82,0-1.59,0-2.33a28.49,28.49,0,0,1,.72-5.32,27.61,27.61,0,0,1,1.39-4.28l4.64.22a17.73,17.73,0,0,0-1.89,4.34,22.08,22.08,0,0,0-.86,5.28,16.79,16.79,0,0,0,.05,2.74,6.65,6.65,0,0,0,.37,1.66,1.91,1.91,0,0,0,.56.84,1.18,1.18,0,0,0,.62.24,1,1,0,0,0,.83-.38,3.68,3.68,0,0,0,.66-1.14,14.42,14.42,0,0,0,.57-1.69c.17-.64.35-1.32.53-2.05s.38-1.46.58-2.23.44-1.51.71-2.23a17.09,17.09,0,0,1,.91-2,7,7,0,0,1,1.17-1.66,4.59,4.59,0,0,1,1.51-1.09,4.14,4.14,0,0,1,1.93-.34,5.06,5.06,0,0,1,2.2.56,5,5,0,0,1,1.54,1.3,6.69,6.69,0,0,1,1,1.83,12.64,12.64,0,0,1,.54,2.16,19.12,19.12,0,0,1,.2,2.28c0,.77,0,1.49,0,2.18s-.11,1.53-.22,2.32-.26,1.58-.43,2.34-.37,1.51-.58,2.22-.43,1.37-.66,2Z"/><path class="cls-1" d="M516.21,314.5l8,1.22,2-13.22-8-1.22.79-5.19L538.24,299l-.79,5.19-7-1.06-2,13.21,7,1.07-.79,5.19-19.23-2.92Z"/><path class="cls-1" d="M517.18,351.24a10.08,10.08,0,0,1-4-2.06,8.5,8.5,0,0,1-2.41-3.38,11.94,11.94,0,0,1-.78-4.52,21,21,0,0,1,.8-5.47,21.54,21.54,0,0,1,2.08-5.13,12.34,12.34,0,0,1,3-3.53,8.85,8.85,0,0,1,3.79-1.73,10.07,10.07,0,0,1,4.52.27,10,10,0,0,1,4,2.06,8.75,8.75,0,0,1,2.4,3.41,12.07,12.07,0,0,1,.78,4.55,21.52,21.52,0,0,1-.81,5.48,21.29,21.29,0,0,1-2.08,5.12,12,12,0,0,1-3,3.5,8.65,8.65,0,0,1-3.78,1.7A10.22,10.22,0,0,1,517.18,351.24Zm1.4-5.13a7.22,7.22,0,0,0,2.19.24,4.78,4.78,0,0,0,2.2-.68,6.58,6.58,0,0,0,2-2,12.21,12.21,0,0,0,1.54-3.62,13.69,13.69,0,0,0,.49-2.75,9,9,0,0,0-.11-2.19,5.53,5.53,0,0,0-.61-1.69,5.06,5.06,0,0,0-1-1.25,5.41,5.41,0,0,0-1.23-.85,6.5,6.5,0,0,0-1.34-.52,7,7,0,0,0-1.45-.24,5,5,0,0,0-1.49.11,5,5,0,0,0-1.46.59,5.52,5.52,0,0,0-1.36,1.15,8.79,8.79,0,0,0-1.2,1.83,14.12,14.12,0,0,0-1,2.63,12,12,0,0,0-.5,3.9,6.52,6.52,0,0,0,.72,2.7,4.69,4.69,0,0,0,1.55,1.69A7,7,0,0,0,518.58,346.11Z"/><path class="cls-1" d="M510.48,377a8.33,8.33,0,0,1-2.35-1.38,5.22,5.22,0,0,1-1.46-2,6.6,6.6,0,0,1-.4-2.78,11.63,11.63,0,0,1,.88-3.58l3.18-8.12-5.72-2.25,1.92-4.89,18.11,7.11-5.1,13a11.9,11.9,0,0,1-1.79,3.22,6.47,6.47,0,0,1-2.17,1.78,5.35,5.35,0,0,1-2.46.5A8.06,8.06,0,0,1,510.48,377Zm1.86-5a3.07,3.07,0,0,0,1.15.25,1.81,1.81,0,0,0,1-.29,3.22,3.22,0,0,0,.85-.9,9.2,9.2,0,0,0,.77-1.57l2.77-7.07-4.66-1.83-2.78,7.07a11.21,11.21,0,0,0-.52,1.66,3,3,0,0,0,0,1.22,1.71,1.71,0,0,0,.48.86A2.74,2.74,0,0,0,512.34,372.05Z"/><path class="cls-1" d="M500.71,398.33a3,3,0,0,1-3.34-1.83,2.35,2.35,0,0,1,.17-2.14,2.48,2.48,0,0,1,1.73-1.33,3.13,3.13,0,0,1,2,.36,2.93,2.93,0,0,1,1.36,1.47,2.54,2.54,0,0,1-.23,2.16A2.4,2.4,0,0,1,500.71,398.33Z"/><path class="cls-1" d="M478.5,408.16l16.09,10.93-2.95,4.35-16.1-10.94Z"/><path class="cls-1" d="M476.07,426a6.91,6.91,0,0,0-1.71-1,2.47,2.47,0,0,0-1.42-.17,2.78,2.78,0,0,0-1.3.66,9.55,9.55,0,0,0-1.37,1.47l-6.13,7.86-3.4-2.65,6.79-8.71a17.5,17.5,0,0,1,2.69-2.85,6.93,6.93,0,0,1,2.53-1.36,4.54,4.54,0,0,1,2.48.06,8,8,0,0,1,2.54,1.4l10.31,8-3.23,4.15Z"/><path class="cls-1" d="M461.19,443.87a7.22,7.22,0,0,0-1.61-1.19,2.55,2.55,0,0,0-1.39-.3,2.75,2.75,0,0,0-1.36.54,10.15,10.15,0,0,0-1.5,1.35l-6.8,7.28-3.16-2.95,7.55-8.07a16.81,16.81,0,0,1,2.94-2.59,6.78,6.78,0,0,1,2.64-1.13,4.51,4.51,0,0,1,2.46.28,7.7,7.7,0,0,1,2.4,1.62l9.55,8.93-3.59,3.83Z"/><path class="cls-1" d="M452.15,468.78l-7.2-8.26a9.57,9.57,0,0,0-1.44-1.37,3.62,3.62,0,0,0-1.51-.69,3.21,3.21,0,0,0-1.68.17,6.56,6.56,0,0,0-2,1.27,9.41,9.41,0,0,0-1.51,1.71,15.4,15.4,0,0,0-1.24,2.13,15.76,15.76,0,0,0-.92,2.32,16.67,16.67,0,0,0-.55,2.25l8,9.2L438.2,481l-12.79-14.66,3.95-3.44,1.75,2c.25-.72.53-1.46.84-2.24a21.61,21.61,0,0,1,1.11-2.35,19.6,19.6,0,0,1,1.52-2.32,15,15,0,0,1,2.06-2.18,11.8,11.8,0,0,1,3-2,7.54,7.54,0,0,1,2.87-.72,5.77,5.77,0,0,1,2.63.5,6.74,6.74,0,0,1,2.25,1.71l8.75,10Z"/><path class="cls-1" d="M414.91,490.94c.4-.07.92-.18,1.54-.34s1.31-.39,2.05-.66a23.68,23.68,0,0,0,2.33-1,18.11,18.11,0,0,0,2.37-1.42c.62-.44,1.13-.83,1.54-1.17a11.9,11.9,0,0,0,1-.93,4.05,4.05,0,0,0,.56-.71,1.81,1.81,0,0,0,.22-.53.61.61,0,0,0,0-.38.7.7,0,0,0-.12-.26.89.89,0,0,0-.77-.37,4.14,4.14,0,0,0-1.28.21c-.5.15-1,.35-1.67.6l-2,.83-2.14.89q-1.11.45-2.22.78a16.32,16.32,0,0,1-2.19.49,8,8,0,0,1-2.06.06,4.85,4.85,0,0,1-1.81-.56,4.23,4.23,0,0,1-1.47-1.34,5.25,5.25,0,0,1-1-2.25,5.17,5.17,0,0,1,.1-2.15,6.94,6.94,0,0,1,.93-2,12.85,12.85,0,0,1,1.5-1.84,18.73,18.73,0,0,1,1.8-1.64c.64-.51,1.27-1,1.87-1.4a27.67,27.67,0,0,1,4.64-2.69,26.6,26.6,0,0,1,4.23-1.54l2.67,3.8a18,18,0,0,0-4.59,1.17,22.16,22.16,0,0,0-4.69,2.57,17.42,17.42,0,0,0-2.13,1.71,6.82,6.82,0,0,0-1.08,1.32,1.89,1.89,0,0,0-.32,1,1.18,1.18,0,0,0,.19.63,1,1,0,0,0,.82.42,3.83,3.83,0,0,0,1.3-.17,15.55,15.55,0,0,0,1.67-.59l1.95-.84c.68-.3,1.39-.61,2.12-.91s1.46-.58,2.19-.81a14.83,14.83,0,0,1,2.16-.54,7.84,7.84,0,0,1,2-.1,4.71,4.71,0,0,1,1.79.53,4.12,4.12,0,0,1,1.46,1.32,5.24,5.24,0,0,1,.91,2.08,4.86,4.86,0,0,1-.09,2,6.39,6.39,0,0,1-.84,1.9,12.38,12.38,0,0,1-1.37,1.75,19.14,19.14,0,0,1-1.68,1.56c-.59.48-1.17.93-1.73,1.32a21.34,21.34,0,0,1-2,1.25c-.69.4-1.4.77-2.11,1.1s-1.41.64-2.11.91-1.34.5-2,.69Z"/><path class="cls-1" d="M400.47,501.06l-7.63-13.17,4.55-2.64L405,498.43l7.14-4.14,2.12,3.66-18.85,10.92-2.12-3.67Z"/><path class="cls-1" d="M374.43,514.16q.42-.06,1-.18c.36-.09.74-.19,1.15-.32a11.82,11.82,0,0,0,1.24-.49,10.25,10.25,0,0,0,2.24-1.44,11.79,11.79,0,0,0,1.67-1.81,12.92,12.92,0,0,0,1.23-2,19.9,19.9,0,0,0,.88-2.06l-5-10.59,4.75-2.25,8.31,17.6-4.75,2.24L385.76,510c-.37.69-.76,1.38-1.18,2.06a16.38,16.38,0,0,1-1.38,2,13.24,13.24,0,0,1-1.72,1.71,10.53,10.53,0,0,1-2.17,1.37c-.31.14-.63.27-1,.39s-.66.24-1,.34-.63.19-.92.26l-.76.17-1.89-4Z"/><path class="cls-1" d="M349.87,507.11l.65,1.8a15.75,15.75,0,0,1,1.7-1.66,22.27,22.27,0,0,1,2-1.49,22.55,22.55,0,0,1,2.26-1.3,26.73,26.73,0,0,1,2.46-1,15.3,15.3,0,0,1,3-.75,8.27,8.27,0,0,1,2.77,0,5.27,5.27,0,0,1,2.3,1,4.75,4.75,0,0,1,1.55,2.24,5,5,0,0,1,.1,3.45,7.62,7.62,0,0,1-2.36,3.13,25.38,25.38,0,0,1-4.81,3.12c-2,1.05-4.44,2.18-7.27,3.39l.14.38a1.83,1.83,0,0,0,.56.81,2.14,2.14,0,0,0,1.16.47,6.51,6.51,0,0,0,1.93-.07,16.12,16.12,0,0,0,2.88-.8,26,26,0,0,0,2.6-1.11c.84-.4,1.64-.84,2.4-1.29s1.45-.92,2.1-1.4,1.23-.94,1.75-1.38L371.3,519c-.57.39-1.21.8-1.93,1.23s-1.47.85-2.26,1.26-1.61.81-2.44,1.18-1.63.71-2.41,1a23.6,23.6,0,0,1-4.38,1.16,11.44,11.44,0,0,1-3.78,0,6.65,6.65,0,0,1-2.93-1.22,5.64,5.64,0,0,1-1.85-2.63l-4.39-12.13Zm3,8.35c1.88-.76,3.45-1.45,4.73-2.06s2.33-1.17,3.14-1.66a12,12,0,0,0,1.86-1.33,4.31,4.31,0,0,0,.9-1,1.44,1.44,0,0,0,.23-.81,2.12,2.12,0,0,0-.13-.61,1.27,1.27,0,0,0-.39-.56,1.58,1.58,0,0,0-.8-.31,4.86,4.86,0,0,0-1.28.06,11.8,11.8,0,0,0-1.86.52,16,16,0,0,0-2.3,1.05,15.47,15.47,0,0,0-2,1.31,13.35,13.35,0,0,0-1.67,1.48,12.54,12.54,0,0,0-1.29,1.54Z"/><path class="cls-1" d="M333.52,527.64l-3.78-14.74,5.09-1.31,3.78,14.75,8-2.05,1.05,4.1-21.1,5.41-1.05-4.1Z"/><path class="cls-1" d="M296.09,528.82a10,10,0,0,1,.25-4.51,8.67,8.67,0,0,1,2.12-3.57,12.27,12.27,0,0,1,3.82-2.55,21.75,21.75,0,0,1,5.33-1.47,21.38,21.38,0,0,1,5.54-.17,12.22,12.22,0,0,1,4.43,1.3,8.75,8.75,0,0,1,3.11,2.78,10.06,10.06,0,0,1,1.58,4.23,9.88,9.88,0,0,1-.26,4.51,8.84,8.84,0,0,1-2.15,3.58A12.19,12.19,0,0,1,316,535.5a21.83,21.83,0,0,1-5.34,1.47,21.25,21.25,0,0,1-5.52.17,12,12,0,0,1-4.4-1.31,8.67,8.67,0,0,1-3.09-2.77A10.28,10.28,0,0,1,296.09,528.82Zm5.25-.79a7.08,7.08,0,0,0,.67,2.09,4.72,4.72,0,0,0,1.51,1.74,6.44,6.44,0,0,0,2.6,1,12.12,12.12,0,0,0,3.93,0,14.46,14.46,0,0,0,2.72-.66,8.86,8.86,0,0,0,2-1A5.79,5.79,0,0,0,316,530a5.39,5.39,0,0,0,.75-1.39,5.24,5.24,0,0,0,.28-1.46,6.24,6.24,0,0,0-.07-1.44,7.22,7.22,0,0,0-.36-1.42,5.27,5.27,0,0,0-.71-1.32,5.09,5.09,0,0,0-1.12-1.1,5.88,5.88,0,0,0-1.61-.78,9.35,9.35,0,0,0-2.16-.36,14.9,14.9,0,0,0-2.8.17,12.06,12.06,0,0,0-3.77,1.12,6.52,6.52,0,0,0-2.17,1.74,4.73,4.73,0,0,0-.93,2.11A7.13,7.13,0,0,0,301.34,528Z"/><path class="cls-1" d="M274.57,535.44c.28.06.59.13,1,.19s.76.11,1.19.14a10.57,10.57,0,0,0,3.94-.47,11.48,11.48,0,0,0,2.24-1,12.82,12.82,0,0,0,1.9-1.41,18.41,18.41,0,0,0,1.6-1.58l-.62-11.69,5.25-.28,1,19.43-5.24.28-.17-3.16c-.61.51-1.23,1-1.87,1.47a15.66,15.66,0,0,1-2,1.28,12,12,0,0,1-2.24.93A10.22,10.22,0,0,1,278,540c-.34,0-.68,0-1,0l-1-.07c-.34,0-.65-.06-.95-.11s-.55-.08-.77-.13l-.23-4.39Z"/><path class="cls-1" d="M251.51,533.29a2.8,2.8,0,0,1-.56-1.95,2.74,2.74,0,0,1,.8-1.85,2.32,2.32,0,0,1,2-.76,2.46,2.46,0,0,1,1.94,1,3.08,3.08,0,0,1,.52,1.94,3,3,0,0,1-.75,1.86,2.53,2.53,0,0,1-2.05.71A2.38,2.38,0,0,1,251.51,533.29Z"/><path class="cls-1" d="M216.55,514.4l-1.51,8,13.13,2.49,1.51-8,5.17,1L231.22,537l-5.17-1,1.33-7-13.14-2.5-1.32,7-5.16-1,3.63-19.12Z"/><path class="cls-1" d="M191.92,523.59l4.34-14.6,5,1.5L197,525.08l7.91,2.35-1.2,4.06-20.88-6.2,1.21-4.06Z"/><path class="cls-1" d="M163.4,496.44,158.05,509l12-9.75,4.64,2,1.31,15.4,5.34-12.58,4.83,2.06L178.56,524,172,521.23l-1.48-16.63-13,10.48L151,512.3l7.61-17.91Z"/><path class="cls-1" d="M154.43,491.94l-9.6,16.92-4.57-2.59,7.5-13.22-12.35-7,2.11-3.7Z"/><path class="cls-1" d="M112.06,483.41l10.64,7.38,1.7-2.46c-.28-.12-.58-.27-.91-.45l-1-.56-1-.63-1-.66a19.43,19.43,0,0,1-3.23-2.76,10,10,0,0,1-1.88-2.82,5.75,5.75,0,0,1-.46-2.79,5.63,5.63,0,0,1,1-2.67,6,6,0,0,1,2.06-1.85,5.59,5.59,0,0,1,2.86-.62,10.74,10.74,0,0,1,3.71.86,23.51,23.51,0,0,1,4.64,2.59c.78.55,1.51,1.09,2.18,1.64s1.27,1.09,1.82,1.62,1,1,1.45,1.51a16.12,16.12,0,0,1,1.06,1.3l-2.62,3.77a15.31,15.31,0,0,0-.84-1.3A16.53,16.53,0,0,0,131,483q-.76-.82-1.8-1.74a25.93,25.93,0,0,0-2.45-1.9,11.85,11.85,0,0,0-4.19-2.09,2.07,2.07,0,0,0-2.25.69,2.18,2.18,0,0,0,.14,2.59,12.47,12.47,0,0,0,3.4,3.16c.55.38,1.11.74,1.66,1.07s1.1.62,1.63.89,1,.49,1.49.69.9.36,1.29.49l1,.73L124.38,497,109.72,486.8Z"/><path class="cls-1" d="M93.27,466a2.76,2.76,0,0,1,.75-1.88,2.81,2.81,0,0,1,1.78-1,2.32,2.32,0,0,1,2,.65,2.44,2.44,0,0,1,.91,2,3,3,0,0,1-.79,1.85,2.94,2.94,0,0,1-1.74,1,2.55,2.55,0,0,1-2-.71A2.37,2.37,0,0,1,93.27,466Z"/><path class="cls-1" d="M76.22,429.11c.62.36,1.24.77,1.85,1.21a18.83,18.83,0,0,1,1.83,1.5,23.54,23.54,0,0,1,1.83,1.88,21.51,21.51,0,0,1,3.15,4.52,12.84,12.84,0,0,1,1.42,4.49,9,9,0,0,1-.53,4.23,9.55,9.55,0,0,1-2.69,3.72,9.37,9.37,0,0,1-4,2.22,9,9,0,0,1-4.25,0,12.85,12.85,0,0,1-4.29-2,22,22,0,0,1-4.11-3.67,24.92,24.92,0,0,1-1.64-2,20.43,20.43,0,0,1-2.24-4c-.29-.66-.55-1.35-.79-2l3.54-3.14c.14.6.3,1.22.47,1.85a14.29,14.29,0,0,0,.73,2A16.74,16.74,0,0,0,67.61,442a17.13,17.13,0,0,0,1.76,2.32,13.76,13.76,0,0,0,3.11,2.74,7.32,7.32,0,0,0,2.74,1.06,4.77,4.77,0,0,0,2.37-.26,6.67,6.67,0,0,0,2-1.21,7.56,7.56,0,0,0,1-1.15,5,5,0,0,0,.69-1.37,5.19,5.19,0,0,0,.24-1.59,5.49,5.49,0,0,0-.32-1.84,10.19,10.19,0,0,0-1-2.09,16.05,16.05,0,0,0-1.76-2.34,18.75,18.75,0,0,0-2.08-2,16.59,16.59,0,0,0-2-1.41,13.38,13.38,0,0,0-1.88-1c-.61-.26-1.2-.49-1.79-.69l3.54-3.13C75,428.4,75.59,428.74,76.22,429.11Z"/><path class="cls-1" d="M51.21,418c.07.4.19.91.36,1.54s.4,1.3.68,2a24.19,24.19,0,0,0,1.06,2.31,18.26,18.26,0,0,0,1.45,2.36c.45.61.84,1.12,1.2,1.52a11.45,11.45,0,0,0,.94,1,3.8,3.8,0,0,0,.71.54,1.85,1.85,0,0,0,.54.22.81.81,0,0,0,.38,0,1.26,1.26,0,0,0,.26-.13.94.94,0,0,0,.35-.78,4.4,4.4,0,0,0-.22-1.27c-.16-.5-.37-1.05-.63-1.67s-.55-1.26-.86-1.94-.61-1.39-.91-2.13-.58-1.48-.81-2.21a15.14,15.14,0,0,1-.53-2.19,7.51,7.51,0,0,1-.08-2,4.91,4.91,0,0,1,.53-1.82A4.22,4.22,0,0,1,57,411.79a5.37,5.37,0,0,1,2.24-1,5.18,5.18,0,0,1,2.15.07,7,7,0,0,1,2,.9,14.29,14.29,0,0,1,1.86,1.47A18.91,18.91,0,0,1,66.9,415c.51.63,1,1.25,1.42,1.84a28.35,28.35,0,0,1,2.76,4.61,26,26,0,0,1,1.59,4.2l-3.76,2.73a18,18,0,0,0-1.23-4.57A22.57,22.57,0,0,0,65,419.16a16.65,16.65,0,0,0-1.74-2.1A6.4,6.4,0,0,0,62,416a1.93,1.93,0,0,0-1-.3,1.2,1.2,0,0,0-.63.19,1,1,0,0,0-.4.83,3.59,3.59,0,0,0,.19,1.29,14,14,0,0,0,.61,1.67c.27.62.55,1.26.87,1.94s.62,1.38.94,2.11a23.27,23.27,0,0,1,.84,2.18,15.85,15.85,0,0,1,.56,2.15,7.45,7.45,0,0,1,.13,2,4.73,4.73,0,0,1-.5,1.79,4,4,0,0,1-1.3,1.47,5,5,0,0,1-2.07.94,4.69,4.69,0,0,1-2,0,6.49,6.49,0,0,1-1.91-.82,11.21,11.21,0,0,1-1.77-1.35A17.65,17.65,0,0,1,53,430.41c-.5-.58-.94-1.15-1.35-1.71s-.87-1.26-1.28-1.95-.78-1.39-1.12-2.1-.66-1.4-.94-2.09-.52-1.34-.72-2Z"/><path class="cls-1" d="M38.36,396.94c0,.4.11.93.22,1.56s.28,1.33.49,2.1a24.62,24.62,0,0,0,.83,2.4,18.43,18.43,0,0,0,1.23,2.48c.39.65.74,1.19,1,1.63a11.56,11.56,0,0,0,.84,1.06,3.84,3.84,0,0,0,.67.61,2.13,2.13,0,0,0,.51.27.86.86,0,0,0,.38,0,.84.84,0,0,0,.27-.11.92.92,0,0,0,.42-.74,4.05,4.05,0,0,0-.1-1.29c-.11-.5-.27-1.08-.47-1.71s-.43-1.31-.67-2-.48-1.44-.72-2.21-.44-1.52-.6-2.27a16.27,16.27,0,0,1-.32-2.22,8.15,8.15,0,0,1,.11-2.06,4.75,4.75,0,0,1,.7-1.76,4.14,4.14,0,0,1,1.45-1.36,5.51,5.51,0,0,1,2.32-.8,5.12,5.12,0,0,1,2.14.27A6.77,6.77,0,0,1,51,391.89a12.08,12.08,0,0,1,1.72,1.64,17.4,17.4,0,0,1,1.49,1.93c.46.68.88,1.33,1.25,2a27.22,27.22,0,0,1,2.32,4.84A27.82,27.82,0,0,1,59,406.6L55,409a17.5,17.5,0,0,0-.81-4.66A21.91,21.91,0,0,0,52,399.42a17.62,17.62,0,0,0-1.54-2.26A6.51,6.51,0,0,0,49.25,396a1.86,1.86,0,0,0-.92-.39,1.18,1.18,0,0,0-.65.13,1,1,0,0,0-.48.78,3.74,3.74,0,0,0,.06,1.31c.11.52.26,1.09.46,1.72s.44,1.31.68,2,.5,1.43.75,2.19.46,1.5.63,2.25a16.1,16.1,0,0,1,.36,2.19,7.56,7.56,0,0,1-.06,2,4.81,4.81,0,0,1-.66,1.75A4.16,4.16,0,0,1,48,413.29a4.9,4.9,0,0,1-2.14.74,4.82,4.82,0,0,1-2-.24,6.35,6.35,0,0,1-1.82-1,11.61,11.61,0,0,1-1.64-1.51A17.71,17.71,0,0,1,39,409.5c-.44-.63-.84-1.24-1.19-1.83s-.75-1.34-1.09-2.06-.65-1.46-.93-2.19-.52-1.46-.73-2.18-.39-1.38-.54-2Z"/><path class="cls-1" d="M33,378a13.44,13.44,0,0,1-.36-2.59,6,6,0,0,1,.24-2,3.64,3.64,0,0,1,.8-1.43A4.48,4.48,0,0,1,35,371a4.43,4.43,0,0,1,2.77-.4,6.45,6.45,0,0,1,2.71,1.25A13,13,0,0,1,43,374.52a23,23,0,0,1,2.19,3.74,27,27,0,0,1,1.11,2.64c.29.82.53,1.6.72,2.32s.33,1.39.44,2,.19,1.22.26,1.78l-4.21,2a13.22,13.22,0,0,0-.09-2.14c-.1-.77-.23-1.54-.41-2.32a23.17,23.17,0,0,0-.66-2.3,21.64,21.64,0,0,0-.84-2.09A15.65,15.65,0,0,0,40,377.5a5.58,5.58,0,0,0-1.29-1.32,1.78,1.78,0,0,0-1-.36,2,2,0,0,0-.78.17,1.62,1.62,0,0,0-.8.83,3,3,0,0,0-.06,1.6,14,14,0,0,0,.77,2.66c.41,1.09,1,2.42,1.73,4l-3.48,1.66c-.68-1.44-1.28-2.62-1.8-3.55a16.65,16.65,0,0,0-1.36-2.14,3,3,0,0,0-1.08-1,1.06,1.06,0,0,0-.92,0,1.54,1.54,0,0,0-.28.19,1.21,1.21,0,0,0-.26.37,1.91,1.91,0,0,0-.13.61,3.39,3.39,0,0,0,.09.94,10.17,10.17,0,0,0,.4,1.37c.19.52.45,1.14.79,1.85s.67,1.32,1.06,2a22.52,22.52,0,0,0,1.27,1.86,21,21,0,0,0,1.41,1.67,11.21,11.21,0,0,0,1.5,1.37l-4.2,2A23.39,23.39,0,0,1,28.92,391a30.31,30.31,0,0,1-2.14-3.79,26.44,26.44,0,0,1-1.46-3.72,12.84,12.84,0,0,1-.6-3.35,6,6,0,0,1,.48-2.7A3.59,3.59,0,0,1,27,375.65a3.85,3.85,0,0,1,1.39-.38,3.68,3.68,0,0,1,1.48.22,5.5,5.5,0,0,1,1.53.88A10.32,10.32,0,0,1,33,378Z"/><path class="cls-1" d="M19.18,352.1a3,3,0,0,1,3.62-1.21,2.34,2.34,0,0,1,1.45,1.57,2.47,2.47,0,0,1-.2,2.18,3,3,0,0,1-1.6,1.21,2.89,2.89,0,0,1-2,0A2.54,2.54,0,0,1,19,354.22,2.42,2.42,0,0,1,19.18,352.1Z"/><path class="cls-1" d="M17.26,318.23a8.06,8.06,0,0,1,3.4-.1,5.84,5.84,0,0,1,2.65,1.3,8.21,8.21,0,0,1,1.94,2.62,16.76,16.76,0,0,1,1.28,3.82c.15.69.27,1.41.36,2.15s.16,1.47.2,2.16.08,1.34.09,1.93,0,1.09,0,1.49l-4.45,1c.07-.43.13-.89.2-1.38a13.74,13.74,0,0,0,.09-1.64,17,17,0,0,0-.09-1.95,20.18,20.18,0,0,0-.37-2.3,7.33,7.33,0,0,0-.79-2.17,3.76,3.76,0,0,0-1.14-1.25,3,3,0,0,0-1.42-.49,5.69,5.69,0,0,0-1.62.12L6.4,326l-1.12-5.12Z"/><path class="cls-1" d="M10.63,288.19a11.14,11.14,0,0,1,2.95,0,9,9,0,0,1,2.55.78,36,36,0,0,0,.73-3.68L20.91,287c-.2.79-.41,1.6-.64,2.43s-.46,1.65-.72,2.49a13.51,13.51,0,0,1,1.81,3.58,22.84,22.84,0,0,1,1,4.59,21.36,21.36,0,0,1,0,5.54A12,12,0,0,1,20.93,310a8.66,8.66,0,0,1-2.86,3,9.93,9.93,0,0,1-4.28,1.45,9.94,9.94,0,0,1-4.51-.4,8.57,8.57,0,0,1-3.5-2.26,12.1,12.1,0,0,1-2.43-3.92A20.79,20.79,0,0,1,2,302.52,20.44,20.44,0,0,1,2,297a12.17,12.17,0,0,1,1.43-4.36,8.74,8.74,0,0,1,2.87-3A10.06,10.06,0,0,1,10.63,288.19Zm.63,5.28a6.81,6.81,0,0,0-2.12.6,4.59,4.59,0,0,0-1.78,1.46,6.5,6.5,0,0,0-1.11,2.56A12.25,12.25,0,0,0,6.18,302a14.26,14.26,0,0,0,.58,2.74,8.29,8.29,0,0,0,.93,2,5.43,5.43,0,0,0,1.2,1.34,5,5,0,0,0,1.36.8,5.34,5.34,0,0,0,1.45.33,7,7,0,0,0,1.45,0,6.69,6.69,0,0,0,1.43-.32,5.39,5.39,0,0,0,1.34-.66,5.33,5.33,0,0,0,1.13-1.1,5.62,5.62,0,0,0,.83-1.58,8.54,8.54,0,0,0,.42-2.15,14.26,14.26,0,0,0-.08-2.8c-.07-.56-.16-1.08-.26-1.56a13,13,0,0,0-.39-1.37c-.23.62-.47,1.22-.71,1.79s-.48,1.12-.72,1.64l-3.67-1.67a25.69,25.69,0,0,0,1.13-2.48c.37-.93.73-1.9,1.08-2.92a4.46,4.46,0,0,0-1.69-.54A7.16,7.16,0,0,0,11.26,293.47Z"/><path class="cls-1" d="M.66,278.51l11-.1a9.21,9.21,0,0,0,2-.2,3.64,3.64,0,0,0,1.5-.69,3.17,3.17,0,0,0,1-1.4,6.34,6.34,0,0,0,.33-2.32,9.25,9.25,0,0,0-.32-2.26,16.23,16.23,0,0,0-.81-2.34,18.39,18.39,0,0,0-1.16-2.2,16,16,0,0,0-1.36-1.88l-12.2.1L.5,260,20,259.82l0,5.24-2.66,0c.39.66.77,1.36,1.16,2.1a19.72,19.72,0,0,1,1.05,2.37,18,18,0,0,1,.78,2.67,15.07,15.07,0,0,1,.31,3,12.1,12.1,0,0,1-.44,3.53,7.79,7.79,0,0,1-1.32,2.64,6,6,0,0,1-2.1,1.67,6.5,6.5,0,0,1-2.76.6l-13.31.11Z"/><path class="cls-1" d="M21.54,233.31a28.54,28.54,0,0,1,.64,4.87,35,35,0,0,1-.16,4.89,21.66,21.66,0,0,1-1.26,5.57,12.22,12.22,0,0,1-2.41,4,8.8,8.8,0,0,1-3.44,2.25,9.91,9.91,0,0,1-4.33.45,9.48,9.48,0,0,1-4-1.32,9.69,9.69,0,0,1-3-2.87,12.1,12.1,0,0,1-1.76-4.19,16.53,16.53,0,0,1-.25-5.27,16.07,16.07,0,0,1,1.21-4.75,10.54,10.54,0,0,1,2.5-3.54A9.6,9.6,0,0,1,9,231.28a12,12,0,0,1,4.79-.38l1.3.13-2,19.07a4.77,4.77,0,0,0,1.76-.66A4.91,4.91,0,0,0,16.32,248a9,9,0,0,0,1.08-2.37,17.9,17.9,0,0,0,.66-3.46,20.79,20.79,0,0,0,.11-2.83A23.54,23.54,0,0,0,18,236.7a19.77,19.77,0,0,0-.42-2.23,9,9,0,0,0-.55-1.63ZM10.7,235.83a4.52,4.52,0,0,0-1.53.28,4,4,0,0,0-1.51,1A6.62,6.62,0,0,0,6.43,239a10.66,10.66,0,0,0-.72,3.09,9.66,9.66,0,0,0,.12,3.09,7.89,7.89,0,0,0,.86,2.26A5.54,5.54,0,0,0,8,249a4.4,4.4,0,0,0,1.31.76Z"/><path class="cls-1" d="M11.84,208.38c-.13.25-.27.54-.42.88s-.29.71-.43,1.12a8.58,8.58,0,0,0-.34,1.28,9.35,9.35,0,0,0-.18,2.66,11.26,11.26,0,0,0,.46,2.42,12.4,12.4,0,0,0,.89,2.19A19,19,0,0,0,13,220.87l11.49,2.29-1,5.15-19.08-3.8,1-5.16,3.09.62c-.33-.71-.65-1.44-1-2.18a16.1,16.1,0,0,1-.73-2.26,12.74,12.74,0,0,1-.36-2.41,10.77,10.77,0,0,1,.2-2.56c.07-.33.16-.67.26-1s.21-.67.32-1,.22-.61.33-.89.22-.52.32-.72l4.32.86C12.07,207.94,12,208.13,11.84,208.38Z"/><path class="cls-1" d="M26.9,184.39a6.3,6.3,0,0,1,3,1.88,7.76,7.76,0,0,1,1.63,3.27,13.91,13.91,0,0,1,.3,4.43,25.86,25.86,0,0,1-1.07,5.4c-.26.85-.56,1.73-.91,2.65s-.72,1.79-1.11,2.65-.79,1.64-1.18,2.37a14.17,14.17,0,0,1-1.12,1.81L22,207.51a20.84,20.84,0,0,0,1.27-1.72,22,22,0,0,0,1.27-2.14c.42-.78.82-1.63,1.21-2.55s.73-1.92,1.06-3a18.17,18.17,0,0,0,.62-2.7,12.74,12.74,0,0,0,.13-2.13,6.06,6.06,0,0,0-.27-1.61,4.39,4.39,0,0,0-.53-1.13,2.8,2.8,0,0,0-.67-.73,2.25,2.25,0,0,0-.72-.37l-1.64-.5a12.66,12.66,0,0,1,.68,3.8,14.08,14.08,0,0,1-.66,4.55,18.23,18.23,0,0,1-2,4.56,7.92,7.92,0,0,1-2.5,2.55,6,6,0,0,1-3,.86,11.38,11.38,0,0,1-3.51-.54l-4.13-1.25,1.52-5.05,3.64,1.09a6.12,6.12,0,0,0,2,.3,3.44,3.44,0,0,0,1.71-.49A4.23,4.23,0,0,0,18.89,198a10,10,0,0,0,1.43-4.71,10,10,0,0,0-.19-2.22,10.37,10.37,0,0,0-.61-2,10.14,10.14,0,0,0-.9-1.64L13.91,186l1.52-5Z"/><path class="cls-1" d="M30.53,159.17A3,3,0,0,1,34,160.75a2.31,2.31,0,0,1,0,2.14,2.46,2.46,0,0,1-1.63,1.46,3.05,3.05,0,0,1-2-.21,2.94,2.94,0,0,1-1.47-1.37,2.53,2.53,0,0,1,.07-2.16A2.41,2.41,0,0,1,30.53,159.17Z"/><path class="cls-1" d="M51.35,123.79a8.13,8.13,0,0,1,2.07,1.75,5.23,5.23,0,0,1,1.1,2.27,6.38,6.38,0,0,1-.09,2.8A12,12,0,0,1,53,134l-4.53,7.46,5.26,3.19L51,149.13,34.33,139l7.25-12a12.44,12.44,0,0,1,2.31-2.87,6.51,6.51,0,0,1,2.45-1.37,5.16,5.16,0,0,1,2.5-.08A8,8,0,0,1,51.35,123.79Zm-2.68,4.58a3.37,3.37,0,0,0-1.1-.44,1.76,1.76,0,0,0-1,.12,3,3,0,0,0-1,.74,9.21,9.21,0,0,0-1,1.42l-3.94,6.48,4.29,2.6,3.93-6.48a11.24,11.24,0,0,0,.81-1.55,3.19,3.19,0,0,0,.24-1.2,1.61,1.61,0,0,0-.32-.93A3.08,3.08,0,0,0,48.67,128.37Z"/><path class="cls-1" d="M62.24,104.93c-.23.17-.48.37-.75.61s-.57.52-.87.83a9.64,9.64,0,0,0-.86,1,9.25,9.25,0,0,0-1.28,2.33,11,11,0,0,0-.62,2.38,13.57,13.57,0,0,0-.13,2.37,19.8,19.8,0,0,0,.21,2.24l9.42,7-3.11,4.22L48.59,116.33l3.12-4.22L54.25,114c0-.79,0-1.58,0-2.38a18.8,18.8,0,0,1,.3-2.36,13.23,13.23,0,0,1,.7-2.33,10.63,10.63,0,0,1,1.27-2.23q.3-.41.66-.81c.24-.26.47-.52.71-.76s.46-.46.68-.66.42-.38.59-.52l3.55,2.62Z"/><path class="cls-1" d="M89.92,95a27.88,27.88,0,0,1-2.33,4.32,33.93,33.93,0,0,1-3,3.87A21.43,21.43,0,0,1,80.31,107a12.16,12.16,0,0,1-4.27,1.8,8.73,8.73,0,0,1-4.1-.19,9.9,9.9,0,0,1-3.78-2.17A9.48,9.48,0,0,1,65.7,103,9.73,9.73,0,0,1,65,98.89a12,12,0,0,1,1-4.42,16.51,16.51,0,0,1,2.88-4.41,15.59,15.59,0,0,1,3.77-3.14,10.4,10.4,0,0,1,4.1-1.41,9.35,9.35,0,0,1,4.2.47A12,12,0,0,1,85,88.48l1,.87-12.77,14.3a4.78,4.78,0,0,0,1.82.49,4.66,4.66,0,0,0,2-.32,9.13,9.13,0,0,0,2.27-1.28,18,18,0,0,0,2.56-2.42,21.4,21.4,0,0,0,1.75-2.23,24.81,24.81,0,0,0,1.38-2.24,21.67,21.67,0,0,0,1-2.05A10.12,10.12,0,0,0,86.53,92ZM79.66,90.68a4.67,4.67,0,0,0-1.4-.67,4,4,0,0,0-1.8-.08,6.23,6.23,0,0,0-2.12.84,10.73,10.73,0,0,0-2.4,2.07,9.29,9.29,0,0,0-1.71,2.58,7.71,7.71,0,0,0-.62,2.33,5.34,5.34,0,0,0,.14,2,4.61,4.61,0,0,0,.62,1.39Z"/><path class="cls-1" d="M85.22,73.63l1.39,1.62c.16-.53.35-1.08.55-1.67a12.8,12.8,0,0,1,.79-1.8A13.42,13.42,0,0,1,89.1,70a11,11,0,0,1,1.63-1.74A8.15,8.15,0,0,1,92.55,67a6.45,6.45,0,0,1,1.68-.55,5.8,5.8,0,0,1,1.49,0,9.46,9.46,0,0,1,1.3.23c.23-.76.47-1.49.73-2.19a16.27,16.27,0,0,1,.89-2,11.68,11.68,0,0,1,1.15-1.77,11,11,0,0,1,1.5-1.56A9.39,9.39,0,0,1,104,57.42a7.22,7.22,0,0,1,2.69-.53,5.76,5.76,0,0,1,2.46.57,6.08,6.08,0,0,1,2,1.55l8.85,10.28-4,3.43L107.72,63a3.46,3.46,0,0,0-1.07-.86,2.59,2.59,0,0,0-1.08-.28,2.62,2.62,0,0,0-1.06.22,4,4,0,0,0-1,.63q-2.14,1.84-3.23,6.14.19.17.42.39l.44.48,7.84,9.1-4,3.43-8.44-9.8a3.29,3.29,0,0,0-1-.84,2.31,2.31,0,0,0-1.07-.24,2.61,2.61,0,0,0-1,.25,4.65,4.65,0,0,0-1,.64,6.32,6.32,0,0,0-1,1.18A10.54,10.54,0,0,0,90.53,75a13.42,13.42,0,0,0-.64,1.75,17,17,0,0,0-.41,1.85l8.44,9.8-4,3.43L81.24,77.05Z"/><path class="cls-1" d="M124.3,66.9,113.11,51l4.29-3,11.19,15.91Z"/><path class="cls-1" d="M150.72,49a27.66,27.66,0,0,1-3.51,3.43,33.73,33.73,0,0,1-4,2.8A21.67,21.67,0,0,1,138,57.51a12.16,12.16,0,0,1-4.62.44,8.71,8.71,0,0,1-3.85-1.41,9.85,9.85,0,0,1-3-3.2,9.44,9.44,0,0,1-1.33-4,9.77,9.77,0,0,1,.51-4.13,11.89,11.89,0,0,1,2.3-3.91A16.31,16.31,0,0,1,132.1,38a15.5,15.5,0,0,1,4.53-1.87A10.43,10.43,0,0,1,141,36a9.76,9.76,0,0,1,3.88,1.71A12,12,0,0,1,148,41.3l.67,1.12-16.46,9.83a4.73,4.73,0,0,0,3.62,1.31,8.57,8.57,0,0,0,2.55-.55,17.38,17.38,0,0,0,3.16-1.54,21.89,21.89,0,0,0,2.34-1.6,23.54,23.54,0,0,0,2-1.73,18.78,18.78,0,0,0,1.53-1.67,8.11,8.11,0,0,0,1-1.41Zm-8.5-7.17a4.67,4.67,0,0,0-1.14-1.06,3.88,3.88,0,0,0-1.69-.61,6.34,6.34,0,0,0-2.28.16,10.34,10.34,0,0,0-2.91,1.27,9.53,9.53,0,0,0-2.4,1.94,7.75,7.75,0,0,0-1.29,2,5.47,5.47,0,0,0-.44,1.9,4.52,4.52,0,0,0,.17,1.51Z"/><path class="cls-1" d="M164.94,26.26l-1,.19c-.35.08-.74.19-1.15.32a10.58,10.58,0,0,0-1.23.5,9.39,9.39,0,0,0-2.24,1.45,11.35,11.35,0,0,0-1.67,1.81,13.16,13.16,0,0,0-1.22,2,19.91,19.91,0,0,0-.87,2.07l5,10.57-4.74,2.26-8.37-17.57,4.75-2.26,1.35,2.85c.37-.69.76-1.39,1.17-2.07a19,19,0,0,1,1.38-1.95,13.31,13.31,0,0,1,1.72-1.72,10.69,10.69,0,0,1,2.17-1.37c.3-.14.62-.28,1-.4l1-.33c.33-.11.63-.19.92-.27l.76-.17,1.9,4Z"/><path class="cls-1" d="M194.06,30.56a27.94,27.94,0,0,1-4.1,2.71,34,34,0,0,1-4.46,2,21.38,21.38,0,0,1-5.57,1.3,12,12,0,0,1-4.61-.44,8.51,8.51,0,0,1-3.53-2.1,9.85,9.85,0,0,1-2.29-3.7,9.37,9.37,0,0,1-.57-4.16,9.8,9.8,0,0,1,1.27-4,12,12,0,0,1,3-3.41,16.19,16.19,0,0,1,4.62-2.53,15.94,15.94,0,0,1,4.8-1,10.7,10.7,0,0,1,4.28.69,9.58,9.58,0,0,1,3.49,2.41,12.14,12.14,0,0,1,2.44,4.14l.44,1.23-18,6.57a4.82,4.82,0,0,0,1.36,1.3,4.9,4.9,0,0,0,2,.67,8.86,8.86,0,0,0,2.6-.06,18.44,18.44,0,0,0,3.4-.92,22.47,22.47,0,0,0,2.6-1.14,22.68,22.68,0,0,0,2.27-1.33,16.88,16.88,0,0,0,1.82-1.35,8.85,8.85,0,0,0,1.23-1.2Zm-7-8.64a4.57,4.57,0,0,0-.92-1.25,3.86,3.86,0,0,0-1.55-.92,6.29,6.29,0,0,0-2.27-.27,10.63,10.63,0,0,0-3.09.7,9.26,9.26,0,0,0-2.72,1.46,7.77,7.77,0,0,0-1.66,1.77,5.54,5.54,0,0,0-.79,1.78,4.53,4.53,0,0,0-.11,1.51Z"/><path class="cls-1" d="M214.39,12.06a2.77,2.77,0,0,1,1.08,1.71,2.79,2.79,0,0,1-.25,2,2.36,2.36,0,0,1-1.72,1.29,2.45,2.45,0,0,1-2.14-.43,3,3,0,0,1-1-1.72,3,3,0,0,1,.21-2,2.53,2.53,0,0,1,1.77-1.24A2.38,2.38,0,0,1,214.39,12.06Z"/><path class="cls-1" d="M251.49,17l-10.8,1-1.48,3.84-5.83.54L241.7,2.05l5.84-.54,12,18.42-5.84.54ZM242.21,14l7.08-.67-4.19-6.8Z"/><path class="cls-1" d="M270.51,4.75c-.61,0-1.16,0-1.65.08a3.3,3.3,0,0,0-1.23.36,1.83,1.83,0,0,0-.78.8,3.3,3.3,0,0,0-.25,1.46v.72L281.27,8l0,4.15-14.67.13.07,7.77-5.26.05-.11-13.09a7.56,7.56,0,0,1,.42-2.69,4.53,4.53,0,0,1,1.48-2A7.45,7.45,0,0,1,266,1.07,18.33,18.33,0,0,1,270.31.6L281.9.5l0,4.15Z"/><path class="cls-1" d="M297.72,6.25,296.3,21.4l-5.23-.49,1.42-15.15L284.27,5l.39-4.21,21.69,2L306,7Z"/><path class="cls-1" d="M328.26,25.64a28.1,28.1,0,0,1-4.91.22,35.42,35.42,0,0,1-4.85-.58,21.73,21.73,0,0,1-5.44-1.75,12,12,0,0,1-3.73-2.74,8.71,8.71,0,0,1-1.95-3.62,10,10,0,0,1-.07-4.36A9.39,9.39,0,0,1,309,9a9.84,9.84,0,0,1,3.12-2.75,12.18,12.18,0,0,1,4.33-1.38,16.09,16.09,0,0,1,5.27.21,15.38,15.38,0,0,1,4.62,1.62,10.3,10.3,0,0,1,3.31,2.79,9.47,9.47,0,0,1,1.76,3.86,12,12,0,0,1,0,4.8l-.25,1.28-18.82-3.62a4.86,4.86,0,0,0,.51,1.82,4.79,4.79,0,0,0,1.31,1.58,9.41,9.41,0,0,0,2.27,1.28,17.93,17.93,0,0,0,3.39,1,22.74,22.74,0,0,0,2.81.36,23.35,23.35,0,0,0,2.63,0,20.38,20.38,0,0,0,2.26-.22,10,10,0,0,0,1.67-.4Zm-1.57-11a4.63,4.63,0,0,0-.14-1.54,4,4,0,0,0-.86-1.59,6.12,6.12,0,0,0-1.81-1.39,9.92,9.92,0,0,0-3-1A9.43,9.43,0,0,0,317.79,9a8.12,8.12,0,0,0-2.33.66,5.56,5.56,0,0,0-1.59,1.12A4.72,4.72,0,0,0,313,12Z"/><path class="cls-1" d="M354,18.16l-.84-.49c-.32-.18-.68-.35-1.08-.53a10.3,10.3,0,0,0-3.88-.86,11,11,0,0,0-2.45.24,12.9,12.9,0,0,0-2.26.7,18.14,18.14,0,0,0-2,1l-3.29,11.24-5-1.47,5.46-18.68,5,1.48-.88,3c.73-.28,1.49-.53,2.25-.77a18.57,18.57,0,0,1,2.32-.54,13,13,0,0,1,2.43-.14,10.48,10.48,0,0,1,2.53.43,9.5,9.5,0,0,1,1,.34c.33.13.65.26,1,.4s.6.28.86.42.5.26.69.37l-1.24,4.23Z"/><path class="cls-1" d="M352.31,33.71l7.08-18.12,18.35,7.17-1.52,3.87L362.9,21.42l-1.17,3,12.64,4.94-1.51,3.87-12.64-4.95-1.38,3.54,13.5,5.28L370.83,41Z"/><path class="cls-1" d="M389.46,33.07c-.54-.27-1-.5-1.5-.68a3.17,3.17,0,0,0-1.26-.25,1.71,1.71,0,0,0-1.05.36,3.2,3.2,0,0,0-.9,1.17l-.33.65,13.09,6.62-1.87,3.7L382.55,38,379,45l-4.69-2.37,5.91-11.67a7.35,7.35,0,0,1,1.62-2.2,4.43,4.43,0,0,1,2.23-1.12,7.47,7.47,0,0,1,3,.15,17.86,17.86,0,0,1,4,1.56l10.34,5.24-1.87,3.7Z"/><path class="cls-1" d="M411.56,45.59a16.24,16.24,0,0,0-1.43-.82,3.39,3.39,0,0,0-1.23-.38,1.81,1.81,0,0,0-1.08.26,3.27,3.27,0,0,0-1,1.09l-.39.61,12.4,7.85-2.22,3.5-12.4-7.85L400,56.42l-4.43-2.81,7-11.06a7.65,7.65,0,0,1,1.81-2,4.51,4.51,0,0,1,2.34-.89,7.37,7.37,0,0,1,3,.43A17.85,17.85,0,0,1,413.64,42l9.79,6.2-2.22,3.51Z"/><path class="cls-1" d="M433.34,79.17a27.94,27.94,0,0,1-4.46-2.06,33.91,33.91,0,0,1-4.05-2.74,21.41,21.41,0,0,1-4-4,12.19,12.19,0,0,1-2.06-4.15,8.62,8.62,0,0,1-.07-4.1,9.87,9.87,0,0,1,1.93-3.91,9.4,9.4,0,0,1,3.24-2.67,9.87,9.87,0,0,1,4-1,12.13,12.13,0,0,1,4.49.75,16.51,16.51,0,0,1,4.58,2.6,15.62,15.62,0,0,1,3.37,3.56,10.46,10.46,0,0,1,1.67,4,9.51,9.51,0,0,1-.21,4.23,12.17,12.17,0,0,1-2.23,4.26l-.81,1L423.64,63.07a4.68,4.68,0,0,0,.07,3.85,9.06,9.06,0,0,0,1.43,2.19,18,18,0,0,0,2.57,2.4,23.76,23.76,0,0,0,2.34,1.61c.8.47,1.57.88,2.32,1.23a20.28,20.28,0,0,0,2.11.83,9.08,9.08,0,0,0,1.67.41ZM437,68.66a4.63,4.63,0,0,0,.58-1.45,3.93,3.93,0,0,0,0-1.8,6.43,6.43,0,0,0-1-2.06,10.46,10.46,0,0,0-2.23-2.26,9.46,9.46,0,0,0-2.67-1.55,7.59,7.59,0,0,0-2.37-.47,5.5,5.5,0,0,0-1.93.26A4.48,4.48,0,0,0,426,60Z"/><path class="cls-1" d="M450.94,96.42A21.86,21.86,0,0,1,449,95.35,18.91,18.91,0,0,1,447.06,94c-.64-.5-1.3-1.08-2-1.73A22,22,0,0,1,441.6,88a12.63,12.63,0,0,1-1.76-4.37,9.1,9.1,0,0,1,.2-4.25,10.51,10.51,0,0,1,6.24-6.44,8.93,8.93,0,0,1,4.24-.35A12.65,12.65,0,0,1,455,74.21a22.53,22.53,0,0,1,4.38,3.34,23.9,23.9,0,0,1,1.79,1.92,21.19,21.19,0,0,1,1.42,1.89,22.07,22.07,0,0,1,1.12,1.91c.34.64.66,1.3.95,2l-3.29,3.4c-.18-.59-.39-1.19-.62-1.81a14,14,0,0,0-.87-1.93,17.27,17.27,0,0,0-1.3-2,17.61,17.61,0,0,0-1.94-2.18,13.73,13.73,0,0,0-3.31-2.49,7.17,7.17,0,0,0-2.82-.84,4.65,4.65,0,0,0-2.34.44,6.75,6.75,0,0,0-1.87,1.36,7,7,0,0,0-.94,1.22,4.91,4.91,0,0,0-.59,1.42,5.35,5.35,0,0,0-.12,1.61,6,6,0,0,0,.46,1.81,10.69,10.69,0,0,0,1.14,2,16.1,16.1,0,0,0,1.94,2.2,19.39,19.39,0,0,0,2.23,1.88,18.18,18.18,0,0,0,2.08,1.25,14.2,14.2,0,0,0,1.95.81c.63.21,1.24.39,1.84.55L453,97.3C452.26,97,451.59,96.73,450.94,96.42Z"/><path class="cls-1" d="M473.12,99.42l-11.55,9.91-3.42-4,11.55-9.91-5.38-6.27,3.22-2.75,14.18,16.52-3.21,2.76Z"/><path class="cls-1" d="M490.52,125a3,3,0,0,1-3.17,2.12,2.33,2.33,0,0,1-1.81-1.13,2.45,2.45,0,0,1-.38-2.15,3,3,0,0,1,1.22-1.59,2.92,2.92,0,0,1,1.94-.53,2.54,2.54,0,0,1,1.8,1.2A2.37,2.37,0,0,1,490.52,125Z"/></g></g></svg>